<?xml version="1.0" encoding="UTF-8"?>
<svg xmlns="http://www.w3.org/2000/svg" viewBox="0 0 607.81 117.35">
  <defs>
    <style>
      .cls-1, .cls-2 {
        fill: #08dfb5;
      }

      .cls-2, .cls-3 {
        fill-rule: evenodd;
      }
    </style>
  </defs>
  <g id="_层_1" data-name="图层 1"/>
  <g id="_层_2" data-name="图层 2">
    <g id="_层_1-2" data-name="图层 1">
      <path class="cls-1" d="M5.66,51.87c0,20.21,3.43,20.62,3.43,29.51S0,95.72,0,117.35c48.57-.07,145.72-.16,145.72,0,0-20.82-9.5-30.92-9.5-37.19s3.64-8.29,3.64-24.86-5.86-21.02-5.86-26.68,2.02-5.86,5.86-12.93c3.84-7.07,4.04-12.93-3.84-9.9-7.88,3.03-7.68,5.86-25.46,5.86s-22.84-.81-40.22-.81-13.54,.81-34.16,.81S3.03-1.09,2.63,6.8c-.4,7.88,8.29,13.54,8.29,21.42s-5.25,12.13-5.25,23.65Z"/>
      <path class="cls-3" d="M56.36,24.98c1.57,0,3.07,.62,4.18,1.73l8.15,8.15c2.31,2.31,6.04,2.31,8.35,0l8.15-8.15c1.11-1.11,2.61-1.73,4.17-1.73h16.18c12.26,0,22.19,9.94,22.19,22.19v18.94c0,12.26-9.94,22.19-22.19,22.19H39.98c-12.26,0-22.19-9.94-22.19-22.19v-18.94c0-12.26,9.94-22.19,22.19-22.19h16.39Z"/>
      <path class="cls-1" d="M64.12,70.56v-5.43h16.68v5.43h-2.71v5.63h-2.71v2.71h-1.61v2.91h-2.61v-2.91h-1.41v-2.71h-2.71v-5.63h-2.91Z"/>
      <path class="cls-2" d="M32.77,43.63v26.23h2.51v4.62h2.41v2.21h2.31v2.41h11.76v-2.41h2.31v-2.21h2.51v-4.62h2.41v-26.23h-2.41v-4.72h-2.51v-2.21h-2.31v-2.41h-11.76v2.01h-2.31v2.61h-2.41v4.72h-2.51Zm5.37,2.47v21.24h1.48v2.77h1.42v1.33h1.37v1.45h6.94v-1.45h1.36v-1.33h1.48v-2.77h1.42v-21.24h-1.42v-2.83h-1.48v-1.33h-1.36v-1.44h-6.94v1.2h-1.37v1.57h-1.42v2.83h-1.48Z"/>
      <path class="cls-2" d="M86.12,43.63v26.23h2.51v4.62h2.41v2.21h2.31v2.41h11.76v-2.41h2.31v-2.21h2.51v-4.62h2.41v-26.23h-2.41v-4.72h-2.51v-2.21h-2.31v-2.41h-11.76v2.01h-2.31v2.61h-2.41v4.72h-2.51Zm5.37,2.47v21.24h1.48v2.77h1.42v1.33h1.36v1.45h6.94v-1.45h1.36v-1.33h1.48v-2.77h1.42v-21.24h-1.42v-2.83h-1.48v-1.33h-1.36v-1.44h-6.94v1.2h-1.36v1.57h-1.42v2.83h-1.48Z"/>
      <rect class="cls-1" x="11.27" y="7.04" width="16.9" height="14.08"/>
      <rect class="cls-1" x="25.34" y="11.26" width="95.74" height="9.86"/>
      <rect class="cls-1" x="119.67" y="7.04" width="14.08" height="14.08"/>
      <rect class="cls-1" x="2.82" y="14.08" width="12.67" height="14.08"/>
      <rect class="cls-1" x="128.12" y="14.08" width="14.08" height="14.08"/>
      <rect class="cls-1" x="5.63" y="25.34" width="11.26" height="23.93"/>
      <rect class="cls-1" x="129.53" y="25.34" width="9.86" height="23.93"/>
      <rect class="cls-1" width="14.08" height="14.08"/>
      <rect class="cls-1" x="130.94" width="14.08" height="14.08"/>
      <path class="cls-1" d="M599.05,54.5h-8.75v17.7h8.75v8.75h8.75v17.6h-17.5v-17.6h-8.85v-8.75h-8.85v8.75h-8.75v17.6h-17.6v-17.6h8.75v-8.75h8.85v-17.7h-8.85v-8.75h-8.75V28.15h17.6v17.6h8.75v8.75h8.85v-8.75h8.85V28.15h17.5v17.6h-8.75v8.75Z"/>
      <path class="cls-1" d="M489.32,28.15h52.8v8.85h-8.75v8.75h-17.6v52.81h-17.6V54.5h8.75v-8.75h-26.35v-8.75h8.75v-8.85Z"/>
      <path class="cls-1" d="M466.8,72.2h-8.85v8.75h8.85v8.85h8.75v8.75h-17.6v-8.75h-8.75v-8.85h-17.6v17.6h-17.6V28.15h52.81v8.85h8.75v26.35h-8.75v8.85Zm-26.45-8.85h17.6v-17.6h-26.35v26.45h8.75v-8.85Z"/>
      <path class="cls-1" d="M394.19,45.75h8.75v52.81h-17.6v-17.6h-26.35v17.6h-17.6V45.75h8.75v-8.75h8.85v-8.85h26.35v8.85h8.85v8.75Zm-8.85,26.45v-26.45h-26.35v26.45h26.35Z"/>
      <path class="cls-1" d="M312.7,28.15h17.6V98.55h-17.6V45.75h-8.75v17.6h-8.75v35.2h-8.85V63.35h-8.85v-17.6h-8.75v52.81h-17.6V28.15h17.6v8.85h17.6v8.75h8.85v-8.75h17.5v-8.85Z"/>
      <path class="cls-1" d="M240.56,45.75h-52.8v8.75h44.05v8.85h8.75v26.45h-8.75v8.75h-44.05v-8.75h-8.75v-8.85h44.05v-8.75h-35.3v-8.85h-8.75v-26.35h8.75v-8.85h44.05v8.85h8.75v8.75Z"/>
    </g>
  </g>
</svg>